#!OML:ASF E:\emotionWalksFemale\Project 1\Capture day 1\Session 1\Female1.ASF
:FULLY-SPECIFIED
:DEGREES
1734
root 9.18482 15.2914 41.0683 183.224 -0.00881299 179.69
lowerback 7.97239 0.624857 -0.349975
upperback -3.81598 0.75936 0.0797284
thorax -8.52082 0.373165 0.168415
lowerneck -9.08186 0.244534 -2.05229
upperneck 13.6295 0.62402 -1.81672
head 5.60999 -0.0513212 -0.198142
rclavicle 4.46334e-015 3.13086e-015
rhumerus -40.2364 7.00182 -82.124
rradius 37.923
rwrist 11.4712
rhand -2.94441 -53.7865
rfingers 7.12502
rthumb 22.7673 -82.4631
lclavicle 4.46334e-015 3.13086e-015
lhumerus -45.9973 9.425 79.4536
lradius 36.1187
lwrist -10.0683
lhand -10.1438 -31.7419
lfingers 7.12502
lthumb 15.8451 -2.37028
rfemur -6.11044 13.379 27.511
rtibia 24.1023
rfoot -27.4238 -39.1006
rtoes 10.3888
lfemur -14.8475 0.248349 -21.688
ltibia 36.6539
lfoot -29.3444 10.9485
ltoes -28.1717
1735
root 9.18094 15.2875 41.0787 183.195 -0.790207 179.528
lowerback 8.0473 0.587852 -0.42364
upperback -3.79558 0.699828 0.0438591
thorax -8.54267 0.347876 0.180226
lowerneck -9.00561 0.00858972 -2.08485
upperneck 13.5326 0.308614 -1.81778
head 5.56693 -0.202433 -0.216101
rclavicle -2.55314e-015 -1.2921e-015
rhumerus -40.4006 6.87505 -82.5235
rradius 37.5313
rwrist 12.0239
rhand -4.25565 -52.4384
rfingers 7.12502
rthumb 21.5084 -81.2642
lclavicle -2.55314e-015 -1.2921e-015
lhumerus -45.5858 8.93856 80.2495
lradius 35.4309
lwrist -10.8078
lhand -10.03 -31.9214
lfingers 7.12502
lthumb 15.9547 -2.55848
rfemur -6.21433 13.0164 27.4098
rtibia 24.3449
rfoot -27.0279 -39.7161
rtoes 9.89902
lfemur -14.6754 -0.670054 -21.9682
ltibia 36.0341
lfoot -28.821 10.7291
ltoes -26.9606
1736
root 9.17627 15.2806 41.0852 183.089 -1.4904 179.502
lowerback 8.09035 0.54633 -0.365487
upperback -3.69301 0.653401 0.017256
thorax -8.45533 0.322965 0.126381
lowerneck -8.98019 -0.208233 -2.05136
upperneck 13.4075 0.0179177 -1.84408
head 5.52376 -0.3384 -0.250521
rclavicle -1.72849e-015 -2.98177e-016
rhumerus -40.3939 6.84264 -83.0308
rradius 37.0972
rwrist 12.4196
rhand -5.26628 -50.4355
rfingers 7.12502
rthumb 20.5376 -79.3692
lclavicle -1.72849e-015 -2.98177e-016
lhumerus -45.5588 7.71256 81.2964
lradius 35.7539
lwrist -10.4775
lhand -5.87003 -29.5644
lfingers 7.12502
lthumb 19.9573 -0.569228
rfemur -6.2179 12.8852 27.463
rtibia 24.6129
rfoot -27.215 -40.2726
rtoes 10.4087
lfemur -14.3661 -1.70593 -22.0978
ltibia 35.4498
lfoot -27.9201 10.454
ltoes -24.6865
1737
root 9.17008 15.2785 41.0931 183.045 -2.05981 179.636
lowerback 8.10955 0.541475 -0.297231
upperback -3.61344 0.667276 0.133843
thorax -8.38117 0.330904 0.209196
lowerneck -9.13724 -0.383342 -2.25879
upperneck 13.3388 -0.212009 -1.55373
head 5.52979 -0.433211 -0.142248
rclavicle -8.27286e-015 6.95746e-016
rhumerus -40.3896 7.09984 -83.495
rradius 37.0808
rwrist 12.6798
rhand -3.47994 -53.2496
rfingers 7.12502
rthumb 22.2533 -81.9884
lclavicle -8.27286e-015 6.95746e-016
lhumerus -45.6195 6.6603 82.3743
lradius 36.0682
lwrist -10.5083
lhand -3.66581 -28.5608
lfingers 7.12502
lthumb 22.0748 0.199195
rfemur -6.23622 12.8914 27.6201
rtibia 24.8149
rfoot -28.6276 -40.2385
rtoes 13.0468
lfemur -14.1576 -2.60088 -22.017
ltibia 34.9405
lfoot -26.6878 9.85612
ltoes -20.6616
1738
root 9.16277 15.2772 41.1018 182.957 -2.58377 179.688
lowerback 8.14523 0.568563 -0.298126
upperback -3.5107 0.713378 0.212719
thorax -8.29242 0.357327 0.285984
lowerneck -9.25062 -0.565434 -2.54657
upperneck 13.3002 -0.453533 -1.1892
head 5.5394 -0.533811 0.00124993
rclavicle 8.76516e-015 3.18055e-015
rhumerus -40.3863 7.13213 -83.7862
rradius 36.7346
rwrist 12.6103
rhand -3.28772 -54.3388
rfingers 7.12502
rthumb 22.4378 -83.0555
lclavicle 8.76516e-015 3.18055e-015
lhumerus -45.5664 5.47179 83.4426
lradius 36.323
lwrist -10.5203
lhand -3.80883 -28.8044
lfingers 7.12502
lthumb 21.9375 -0.0282066
rfemur -6.19645 12.701 27.6695
rtibia 24.942
rfoot -29.5579 -39.939
rtoes 15.0532
lfemur -13.8953 -3.81603 -22.006
ltibia 34.5044
lfoot -26.3454 9.74296
ltoes -17.135
1739
root 9.15556 15.273 41.1133 182.807 -3.25424 179.718
lowerback 8.34269 0.541698 -0.282479
upperback -3.44313 0.685275 0.250294
thorax -8.33472 0.345318 0.319535
lowerneck -9.31488 -0.75152 -2.65786
upperneck 13.2875 -0.706794 -1.00651
head 5.5491 -0.646523 0.0577899
rclavicle 4.43072e-015 4.47266e-015
rhumerus -40.4958 7.14766 -84.0774
rradius 36.3111
rwrist 12.5685
rhand -5.34821 -52.2136
rfingers 7.12502
rthumb 20.4588 -81.1557
lclavicle 4.43072e-015 4.47266e-015
lhumerus -45.6425 4.05124 84.5079
lradius 36.5423
lwrist -10.9831
lhand -1.43591 -29.2193
lfingers 7.12502
lthumb 24.2143 -0.728084
rfemur -6.12324 12.3721 27.7467
rtibia 25.0784
rfoot -29.776 -40.0935
rtoes 15.8104
lfemur -13.5837 -5.30131 -22.0175
ltibia 34.0804
lfoot -25.8 10.8343
ltoes -16.2885
